<?xml version="1.0" standalone="no"?><svg xmlns="http://www.w3.org/2000/svg" viewBox="0 0 1440 320">
<path fill="#ed9d52" fill-opacity="0.5" d="M0,32L60,48C120,64,240,96,360,96C480,96,600,64,720,53.3C840,43,960,53,1080,74.7C1200,96,1320,128,1380,144L1440,160L1440,0L1380,0C1320,0,1200,0,1080,0C960,0,840,0,720,0C600,0,480,0,360,0C240,0,120,0,60,0L0,0Z"></path>
<path fill="#ed9d52" fill-opacity="0.5" d="M0,224L60,197.3C120,171,240,117,360,128C480,139,600,213,720,245.3C840,277,960,267,1080,240C1200,213,1320,171,1380,149.3L1440,128L1440,0L1380,0C1320,0,1200,0,1080,0C960,0,840,0,720,0C600,0,480,0,360,0C240,0,120,0,60,0L0,0Z"></path>

</svg>